<mxfile host="app.diagrams.net" modified="2024-04-08T13:15:26.485Z" agent="Mozilla/5.0 (Macintosh; Intel Mac OS X 10_15_7) AppleWebKit/537.36 (KHTML, like Gecko) Chrome/123.0.0.0 Safari/537.36" etag="zCVKspT9Huok229uL0CA" version="24.1.0" type="device">
  <diagram name="Page-1" id="y1BAYYGQ_6_5SVW1w3v-">
    <mxGraphModel dx="750" dy="450" grid="1" gridSize="10" guides="1" tooltips="1" connect="1" arrows="1" fold="1" page="1" pageScale="1" pageWidth="827" pageHeight="1169" math="0" shadow="0">
      <root>
        <mxCell id="0" />
        <mxCell id="1" parent="0" />
        <mxCell id="petskXiNOhwTS32IPfln-2" value="Utilisateur&lt;div&gt;-------&lt;/div&gt;&lt;div&gt;Admin : bool&lt;/div&gt;&lt;div&gt;Actif : bool&lt;/div&gt;&lt;div&gt;UserId : int&lt;/div&gt;&lt;div&gt;Nom : String&lt;/div&gt;&lt;div&gt;Prenom : String&lt;/div&gt;&lt;div&gt;mail : String&lt;/div&gt;&lt;div&gt;mdp : String (hidden)&lt;/div&gt;" style="rounded=0;whiteSpace=wrap;html=1;" vertex="1" parent="1">
          <mxGeometry x="160" y="160" width="160" height="150" as="geometry" />
        </mxCell>
        <mxCell id="petskXiNOhwTS32IPfln-3" value="Chat&lt;div&gt;-------&lt;/div&gt;&lt;div&gt;&lt;div&gt;ChatId : int&lt;/div&gt;&lt;div&gt;DateCreation : date&lt;/div&gt;&lt;div&gt;DureeValidité : time&lt;/div&gt;&lt;div&gt;Titre : string&lt;/div&gt;&lt;div&gt;Description : string&lt;/div&gt;&lt;div&gt;&lt;br&gt;&lt;/div&gt;&lt;/div&gt;" style="rounded=0;whiteSpace=wrap;html=1;" vertex="1" parent="1">
          <mxGeometry x="490" y="160" width="160" height="150" as="geometry" />
        </mxCell>
        <mxCell id="petskXiNOhwTS32IPfln-14" style="edgeStyle=none;curved=0;rounded=0;orthogonalLoop=1;jettySize=auto;html=1;entryX=0.544;entryY=1.025;entryDx=0;entryDy=0;entryPerimeter=0;fontSize=12;startSize=8;endSize=8;" edge="1" parent="1">
          <mxGeometry relative="1" as="geometry">
            <mxPoint x="245" y="310" as="sourcePoint" />
            <mxPoint x="582.04" y="313.75" as="targetPoint" />
            <Array as="points">
              <mxPoint x="245" y="360" />
              <mxPoint x="582" y="360" />
            </Array>
          </mxGeometry>
        </mxCell>
        <mxCell id="petskXiNOhwTS32IPfln-15" value="Créer&lt;div&gt;Supprimer&lt;/div&gt;&lt;div&gt;Appartient à&lt;/div&gt;" style="edgeLabel;html=1;align=center;verticalAlign=middle;resizable=0;points=[];fontSize=12;" vertex="1" connectable="0" parent="petskXiNOhwTS32IPfln-14">
          <mxGeometry x="-0.1718" y="34" relative="1" as="geometry">
            <mxPoint x="40" y="34" as="offset" />
          </mxGeometry>
        </mxCell>
        <mxCell id="petskXiNOhwTS32IPfln-20" style="edgeStyle=none;curved=1;rounded=0;orthogonalLoop=1;jettySize=auto;html=1;exitX=0.5;exitY=0;exitDx=0;exitDy=0;entryX=-0.019;entryY=0.547;entryDx=0;entryDy=0;entryPerimeter=0;fontSize=12;startSize=8;endSize=8;" edge="1" parent="1" source="petskXiNOhwTS32IPfln-2" target="petskXiNOhwTS32IPfln-2">
          <mxGeometry relative="1" as="geometry">
            <Array as="points">
              <mxPoint x="70" y="100" />
            </Array>
          </mxGeometry>
        </mxCell>
        <mxCell id="petskXiNOhwTS32IPfln-21" value="ajoute,&amp;nbsp;&lt;div&gt;supprime,&lt;/div&gt;&lt;div&gt;désactive&lt;/div&gt;" style="edgeLabel;html=1;align=center;verticalAlign=middle;resizable=0;points=[];fontSize=12;" vertex="1" connectable="0" parent="petskXiNOhwTS32IPfln-20">
          <mxGeometry x="0.4737" y="20" relative="1" as="geometry">
            <mxPoint x="-1" as="offset" />
          </mxGeometry>
        </mxCell>
        <mxCell id="petskXiNOhwTS32IPfln-23" style="edgeStyle=orthogonalEdgeStyle;rounded=0;orthogonalLoop=1;jettySize=auto;html=1;exitX=1;exitY=0.5;exitDx=0;exitDy=0;fontSize=12;startSize=8;endSize=8;curved=1;dashed=1;" edge="1" parent="1" source="petskXiNOhwTS32IPfln-22">
          <mxGeometry relative="1" as="geometry">
            <mxPoint x="120" y="140" as="targetPoint" />
          </mxGeometry>
        </mxCell>
        <mxCell id="petskXiNOhwTS32IPfln-22" value="que admin" style="rounded=0;whiteSpace=wrap;html=1;" vertex="1" parent="1">
          <mxGeometry x="40" y="80" width="60" height="40" as="geometry" />
        </mxCell>
        <mxCell id="petskXiNOhwTS32IPfln-32" style="edgeStyle=none;curved=1;rounded=0;orthogonalLoop=1;jettySize=auto;html=1;fontSize=12;startSize=8;endSize=8;endArrow=oval;endFill=1;dashed=1;" edge="1" parent="1" source="petskXiNOhwTS32IPfln-26">
          <mxGeometry relative="1" as="geometry">
            <mxPoint x="420" y="130" as="targetPoint" />
          </mxGeometry>
        </mxCell>
        <mxCell id="petskXiNOhwTS32IPfln-26" value="Appartenance&lt;div&gt;------&lt;/div&gt;&lt;div&gt;ChatId&lt;/div&gt;&lt;div&gt;UserID&lt;/div&gt;" style="rounded=0;whiteSpace=wrap;html=1;" vertex="1" parent="1">
          <mxGeometry x="340" y="10" width="160" height="70" as="geometry" />
        </mxCell>
        <mxCell id="petskXiNOhwTS32IPfln-31" style="edgeStyle=none;curved=0;rounded=0;orthogonalLoop=1;jettySize=auto;html=1;exitX=0.5;exitY=0;exitDx=0;exitDy=0;entryX=0.583;entryY=-0.019;entryDx=0;entryDy=0;entryPerimeter=0;fontSize=12;startSize=8;endSize=8;" edge="1" parent="1" source="petskXiNOhwTS32IPfln-2" target="petskXiNOhwTS32IPfln-3">
          <mxGeometry relative="1" as="geometry">
            <Array as="points">
              <mxPoint x="240" y="130" />
              <mxPoint x="410" y="130" />
              <mxPoint x="583" y="130" />
            </Array>
          </mxGeometry>
        </mxCell>
      </root>
    </mxGraphModel>
  </diagram>
</mxfile>
